<svg xmlns="http://www.w3.org/2000/svg" width="29" height="28" viewBox="0 0 29 28" fill="none"><path d="M14.5 14.875C14.5 15.1071 14.4078 15.3296 14.2437 15.4937C14.0796 15.6578 13.8571 15.75 13.625 15.75H8.375C8.14293 15.75 7.92038 15.6578 7.75628 15.4937C7.59219 15.3296 7.5 15.1071 7.5 14.875C7.5 14.6429 7.59219 14.4204 7.75628 14.2563C7.92038 14.0922 8.14293 14 8.375 14H13.625C13.8571 14 14.0796 14.0922 14.2437 14.2563C14.4078 14.4204 14.5 14.6429 14.5 14.875ZM13.625 10.5H8.375C8.14293 10.5 7.92038 10.5922 7.75628 10.7563C7.59219 10.9204 7.5 11.1429 7.5 11.375C7.5 11.6071 7.59219 11.8296 7.75628 11.9937C7.92038 12.1578 8.14293 12.25 8.375 12.25H13.625C13.8571 12.25 14.0796 12.1578 14.2437 11.9937C14.4078 11.8296 14.5 11.6071 14.5 11.375C14.5 11.1429 14.4078 10.9204 14.2437 10.7563C14.0796 10.5922 13.8571 10.5 13.625 10.5ZM25.875 17.6608V24.5C25.8764 24.6543 25.837 24.8061 25.7607 24.9403C25.6845 25.0744 25.5742 25.1859 25.4409 25.2637C25.3077 25.3414 25.1562 25.3825 25.002 25.3829C24.8477 25.3832 24.6961 25.3428 24.5625 25.2656L21.9375 23.7628L19.3125 25.2656C19.1789 25.3428 19.0273 25.3832 18.873 25.3829C18.7188 25.3825 18.5673 25.3414 18.4341 25.2637C18.3008 25.1859 18.1905 25.0744 18.1143 24.9403C18.038 24.8061 17.9986 24.6543 18 24.5V21.875H4.875C4.41087 21.875 3.96575 21.6906 3.63756 21.3624C3.30937 21.0342 3.125 20.5891 3.125 20.125V6.125C3.125 5.66087 3.30937 5.21575 3.63756 4.88756C3.96575 4.55937 4.41087 4.375 4.875 4.375H24.125C24.5891 4.375 25.0342 4.55937 25.3624 4.88756C25.6906 5.21575 25.875 5.66087 25.875 6.125V9.46422C26.4281 9.9939 26.8683 10.6301 27.169 11.3344C27.4697 12.0387 27.6248 12.7967 27.6248 13.5625C27.6248 14.3283 27.4697 15.0863 27.169 15.7906C26.8683 16.4949 26.4281 17.1311 25.875 17.6608ZM18 20.125V17.6608C17.0465 16.7412 16.4439 15.5176 16.2961 14.2012C16.1484 12.8847 16.4649 11.558 17.1909 10.4499C17.9169 9.34189 19.0069 8.52201 20.2728 8.13179C21.5387 7.74157 22.9012 7.80548 24.125 8.3125V6.125H4.875V20.125H18ZM24.125 18.8125C23.432 19.102 22.6885 19.2511 21.9375 19.2511C21.1865 19.2511 20.443 19.102 19.75 18.8125V22.9928L21.5 21.9909C21.6322 21.9153 21.7819 21.8756 21.9342 21.8756C22.0865 21.8756 22.2362 21.9153 22.3684 21.9909L24.1184 22.9928L24.125 18.8125ZM25.875 13.5625C25.875 12.7837 25.6441 12.0225 25.2114 11.3749C24.7788 10.7274 24.1638 10.2227 23.4443 9.92472C22.7248 9.6267 21.9331 9.54873 21.1693 9.70066C20.4055 9.85259 19.7039 10.2276 19.1533 10.7783C18.6026 11.3289 18.2276 12.0305 18.0757 12.7943C17.9237 13.5581 18.0017 14.3498 18.2997 15.0693C18.5977 15.7888 19.1024 16.4038 19.7499 16.8364C20.3975 17.2691 21.1587 17.5 21.9375 17.5C22.4546 17.5 22.9666 17.3982 23.4443 17.2003C23.922 17.0024 24.3561 16.7124 24.7217 16.3467C25.0874 15.9811 25.3774 15.547 25.5753 15.0693C25.7731 14.5916 25.875 14.0796 25.875 13.5625Z" fill="black"></path></svg>