<svg xmlns="http://www.w3.org/2000/svg" width="24" height="21" viewBox="0 0 24 21" fill="none"><path d="M22.5 18.875H21.625V1.375C21.625 1.14294 21.5328 0.920376 21.3687 0.756282C21.2046 0.592187 20.9821 0.5 20.75 0.5H14.625C14.3929 0.5 14.1704 0.592187 14.0063 0.756282C13.8422 0.920376 13.75 1.14294 13.75 1.375V5.75H8.5C8.26794 5.75 8.04538 5.84219 7.88128 6.00628C7.71719 6.17038 7.625 6.39294 7.625 6.625V11H3.25C3.01794 11 2.79538 11.0922 2.63128 11.2563C2.46719 11.4204 2.375 11.6429 2.375 11.875V18.875H1.5C1.26794 18.875 1.04538 18.9672 0.881282 19.1313C0.717187 19.2954 0.625 19.5179 0.625 19.75C0.625 19.9821 0.717187 20.2046 0.881282 20.3687C1.04538 20.5328 1.26794 20.625 1.5 20.625H22.5C22.7321 20.625 22.9546 20.5328 23.1187 20.3687C23.2828 20.2046 23.375 19.9821 23.375 19.75C23.375 19.5179 23.2828 19.2954 23.1187 19.1313C22.9546 18.9672 22.7321 18.875 22.5 18.875ZM15.5 2.25H19.875V18.875H15.5V2.25ZM9.375 7.5H13.75V18.875H9.375V7.5ZM4.125 12.75H7.625V18.875H4.125V12.75Z" fill="black"></path></svg>