<svg xmlns="http://www.w3.org/2000/svg" width="29" height="28" viewBox="0 0 29 28" fill="none"><path d="M25.5415 18.375H24.6665V7.875C24.6665 7.17881 24.3899 6.51113 23.8977 6.01884C23.4054 5.52656 22.7377 5.25 22.0415 5.25H6.2915C5.59531 5.25 4.92763 5.52656 4.43535 6.01884C3.94307 6.51113 3.6665 7.17881 3.6665 7.875V18.375H2.7915C2.55944 18.375 2.33688 18.4672 2.17279 18.6313C2.00869 18.7954 1.9165 19.0179 1.9165 19.25V21C1.9165 21.6962 2.19307 22.3639 2.68535 22.8562C3.17763 23.3484 3.84531 23.625 4.5415 23.625H23.7915C24.4877 23.625 25.1554 23.3484 25.6477 22.8562C26.1399 22.3639 26.4165 21.6962 26.4165 21V19.25C26.4165 19.0179 26.3243 18.7954 26.1602 18.6313C25.9961 18.4672 25.7736 18.375 25.5415 18.375ZM5.4165 7.875C5.4165 7.64294 5.50869 7.42038 5.67279 7.25628C5.83688 7.09219 6.05944 7 6.2915 7H22.0415C22.2736 7 22.4961 7.09219 22.6602 7.25628C22.8243 7.42038 22.9165 7.64294 22.9165 7.875V18.375H5.4165V7.875ZM24.6665 21C24.6665 21.2321 24.5743 21.4546 24.4102 21.6187C24.2461 21.7828 24.0236 21.875 23.7915 21.875H4.5415C4.30944 21.875 4.08688 21.7828 3.92279 21.6187C3.75869 21.4546 3.6665 21.2321 3.6665 21V20.125H24.6665V21ZM16.7915 9.625C16.7915 9.85706 16.6993 10.0796 16.5352 10.2437C16.3711 10.4078 16.1486 10.5 15.9165 10.5H12.4165C12.1844 10.5 11.9619 10.4078 11.7978 10.2437C11.6337 10.0796 11.5415 9.85706 11.5415 9.625C11.5415 9.39294 11.6337 9.17038 11.7978 9.00628C11.9619 8.84219 12.1844 8.75 12.4165 8.75H15.9165C16.1486 8.75 16.3711 8.84219 16.5352 9.00628C16.6993 9.17038 16.7915 9.39294 16.7915 9.625Z" fill="black"></path></svg>