<svg xmlns="http://www.w3.org/2000/svg" width="29" height="29" viewBox="0 0 29 29" fill="none"><path d="M19.7494 11.5128C19.8308 11.594 19.8953 11.6905 19.9394 11.7968C19.9834 11.903 20.0061 12.0168 20.0061 12.1318C20.0061 12.2468 19.9834 12.3607 19.9394 12.4669C19.8953 12.5731 19.8308 12.6696 19.7494 12.7509L13.6244 18.8759C13.5432 18.9573 13.4467 19.0218 13.3404 19.0658C13.2342 19.1099 13.1204 19.1325 13.0054 19.1325C12.8904 19.1325 12.7765 19.1099 12.6703 19.0658C12.5641 19.0218 12.4676 18.9573 12.3863 18.8759L9.76131 16.2509C9.59713 16.0867 9.50489 15.864 9.50489 15.6318C9.50489 15.3996 9.59713 15.177 9.76131 15.0128C9.9255 14.8486 10.1482 14.7563 10.3804 14.7563C10.6126 14.7563 10.8353 14.8486 10.9994 15.0128L13.0054 17.0198L18.5113 11.5128C18.5926 11.4314 18.6891 11.3669 18.7953 11.3228C18.9015 11.2788 19.0154 11.2561 19.1304 11.2561C19.2454 11.2561 19.3592 11.2788 19.4654 11.3228C19.5717 11.3669 19.6682 11.4314 19.7494 11.5128ZM26.1304 14.7568C26.1304 17.0066 25.4632 19.2058 24.2133 21.0764C22.9634 22.9471 21.1869 24.405 19.1084 25.266C17.0299 26.1269 14.7428 26.3522 12.5362 25.9133C10.3297 25.4744 8.30286 24.391 6.71204 22.8002C5.12121 21.2094 4.03785 19.1825 3.59894 16.976C3.16004 14.7695 3.3853 12.4823 4.24625 10.4038C5.10719 8.3253 6.56516 6.54877 8.43576 5.29887C10.3064 4.04897 12.5056 3.38184 14.7554 3.38184C17.7712 3.38502 20.6627 4.58448 22.7952 6.71701C24.9277 8.84955 26.1272 11.741 26.1304 14.7568ZM24.3804 14.7568C24.3804 12.8532 23.8159 10.9923 22.7583 9.40947C21.7007 7.82665 20.1974 6.59299 18.4387 5.8645C16.68 5.136 14.7447 4.94539 12.8776 5.31678C11.0106 5.68816 9.29555 6.60485 7.94947 7.95093C6.60339 9.29701 5.6867 11.012 5.31532 12.8791C4.94393 14.7462 5.13454 16.6814 5.86304 18.4402C6.59153 20.1989 7.82519 21.7021 9.40801 22.7597C10.9908 23.8173 12.8517 24.3818 14.7554 24.3818C17.3072 24.3789 19.7537 23.364 21.5581 21.5595C23.3625 19.7551 24.3775 17.3087 24.3804 14.7568Z" fill="black"></path></svg>