<svg xmlns="http://www.w3.org/2000/svg" width="24" height="26" viewBox="0 0 24 26" fill="none"><path d="M19.9152 3.97844C18.8685 2.92119 17.6235 2.0808 16.2516 1.50537C14.8796 0.929934 13.4076 0.630769 11.9199 0.625H11.8335C8.81666 0.625 5.92338 1.82343 3.79016 3.95666C1.65693 6.08989 0.458496 8.98316 0.458496 12V18.125C0.458496 18.8212 0.735058 19.4889 1.22734 19.9812C1.71962 20.4734 2.3873 20.75 3.0835 20.75H4.8335C5.52969 20.75 6.19737 20.4734 6.68965 19.9812C7.18194 19.4889 7.4585 18.8212 7.4585 18.125V13.75C7.4585 13.0538 7.18194 12.3861 6.68965 11.8938C6.19737 11.4016 5.52969 11.125 4.8335 11.125H2.24787C2.41662 9.30055 3.10191 7.562 4.22343 6.11311C5.34495 4.66423 6.85623 3.56503 8.58014 2.94437C10.304 2.3237 12.1692 2.20728 13.9569 2.60874C15.7446 3.01021 17.3808 3.91292 18.6738 5.21109C20.2542 6.79955 21.2262 8.89272 21.4202 11.125H18.8335C18.1373 11.125 17.4696 11.4016 16.9773 11.8938C16.4851 12.3861 16.2085 13.0538 16.2085 13.75V18.125C16.2085 18.8212 16.4851 19.4889 16.9773 19.9812C17.4696 20.4734 18.1373 20.75 18.8335 20.75H21.4585C21.4585 21.4462 21.1819 22.1139 20.6897 22.6062C20.1974 23.0984 19.5297 23.375 18.8335 23.375H12.7085C12.4764 23.375 12.2539 23.4672 12.0898 23.6313C11.9257 23.7954 11.8335 24.0179 11.8335 24.25C11.8335 24.4821 11.9257 24.7046 12.0898 24.8687C12.2539 25.0328 12.4764 25.125 12.7085 25.125H18.8335C19.9938 25.125 21.1066 24.6641 21.9271 23.8436C22.7476 23.0231 23.2085 21.9103 23.2085 20.75V12C23.2142 10.512 22.9262 9.03757 22.3611 7.66108C21.796 6.2846 20.9648 5.03315 19.9152 3.97844ZM4.8335 12.875C5.06556 12.875 5.28812 12.9672 5.45222 13.1313C5.61631 13.2954 5.7085 13.5179 5.7085 13.75V18.125C5.7085 18.3571 5.61631 18.5796 5.45222 18.7437C5.28812 18.9078 5.06556 19 4.8335 19H3.0835C2.85143 19 2.62887 18.9078 2.46478 18.7437C2.30068 18.5796 2.2085 18.3571 2.2085 18.125V12.875H4.8335ZM18.8335 19C18.6014 19 18.3789 18.9078 18.2148 18.7437C18.0507 18.5796 17.9585 18.3571 17.9585 18.125V13.75C17.9585 13.5179 18.0507 13.2954 18.2148 13.1313C18.3789 12.9672 18.6014 12.875 18.8335 12.875H21.4585V19H18.8335Z" fill="black"></path></svg>