<svg xmlns="http://www.w3.org/2000/svg" width="29" height="29" viewBox="0 0 29 29" fill="none"><path d="M26.2085 5.55859H18.3335C17.6543 5.55859 16.9844 5.71673 16.3769 6.02047C15.7694 6.32422 15.241 6.76524 14.8335 7.30859C14.426 6.76524 13.8975 6.32422 13.2901 6.02047C12.6826 5.71673 12.0127 5.55859 11.3335 5.55859H3.4585C3.22643 5.55859 3.00387 5.65078 2.83978 5.81488C2.67568 5.97897 2.5835 6.20153 2.5835 6.43359V22.1836C2.5835 22.4157 2.67568 22.6382 2.83978 22.8023C3.00387 22.9664 3.22643 23.0586 3.4585 23.0586H11.3335C12.0297 23.0586 12.6974 23.3352 13.1897 23.8274C13.6819 24.3197 13.9585 24.9874 13.9585 25.6836C13.9585 25.9157 14.0507 26.1382 14.2148 26.3023C14.3789 26.4664 14.6014 26.5586 14.8335 26.5586C15.0656 26.5586 15.2881 26.4664 15.4522 26.3023C15.6163 26.1382 15.7085 25.9157 15.7085 25.6836C15.7085 24.9874 15.9851 24.3197 16.4773 23.8274C16.9696 23.3352 17.6373 23.0586 18.3335 23.0586H26.2085C26.4406 23.0586 26.6631 22.9664 26.8272 22.8023C26.9913 22.6382 27.0835 22.4157 27.0835 22.1836V6.43359C27.0835 6.20153 26.9913 5.97897 26.8272 5.81488C26.6631 5.65078 26.4406 5.55859 26.2085 5.55859ZM11.3335 21.3086H4.3335V7.30859H11.3335C12.0297 7.30859 12.6974 7.58516 13.1897 8.07744C13.6819 8.56972 13.9585 9.2374 13.9585 9.93359V22.1836C13.2019 21.6143 12.2804 21.3071 11.3335 21.3086ZM25.3335 21.3086H18.3335C17.3866 21.3071 16.4651 21.6143 15.7085 22.1836V9.93359C15.7085 9.2374 15.9851 8.56972 16.4773 8.07744C16.9696 7.58516 17.6373 7.30859 18.3335 7.30859H25.3335V21.3086Z" fill="black"></path></svg>